<svg xmlns="http://www.w3.org/2000/svg" viewBox="0 0 800 157.09"><g id="Layer_3" data-name="Layer 3"><path d="M68.09,94.61A9,9,0,0,0,65,87.41q-3.12-2.73-11-5.13-13.44-4.05-20.41-9.55t-7-15a18.84,18.84,0,0,1,7.85-15.61q7.84-6.06,20-6.06,12.92,0,20.79,6.51a20.38,20.38,0,0,1,7.6,17.09l-.1.32H67.66q0-5.82-3.52-8.94T54.26,47.9q-5.76,0-8.91,2.78a9,9,0,0,0-3.15,7.1,7.76,7.76,0,0,0,3.41,6.48Q49,66.8,57.41,69.63,70.22,73.26,77,79.1t6.73,15.41a18.52,18.52,0,0,1-7.8,15.74Q68.1,116,55.28,116q-12.56,0-21.55-6.25T25,91.14l.1-.32H40.22q0,6.89,4.06,10.15t11,3.25q6.24,0,9.52-2.61A8.51,8.51,0,0,0,68.09,94.61Z" style="fill:#121313"/><path d="M146.08,87.62q0,12.81-5.93,20.61T123.61,116a18.47,18.47,0,0,1-8.06-1.68,16.64,16.64,0,0,1-6-4.94v27.71H94v-80h14l.91,6.83a18.38,18.38,0,0,1,6.16-5.84,16.69,16.69,0,0,1,8.41-2.06q10.73,0,16.65,8.38t5.93,22ZM130.49,86.5q0-8.18-2.72-13.24a8.89,8.89,0,0,0-8.33-5.07,11.74,11.74,0,0,0-6,1.44,10.25,10.25,0,0,0-3.93,4.11V99a9.5,9.5,0,0,0,3.93,3.74,13.12,13.12,0,0,0,6.11,1.28q5.65,0,8.3-4.43t2.64-12Z" style="fill:#121313"/><path d="M189.75,114.9a33,33,0,0,1-1.47-4.17,28.86,28.86,0,0,1-.88-4.48,21.38,21.38,0,0,1-6.35,7,16,16,0,0,1-9.4,2.78q-9.08,0-14-4.67t-4.91-12.73q0-8.49,6.54-13.16t19.09-4.67h8.75V76.2a9,9,0,0,0-2.19-6.46q-2.19-2.3-6.51-2.3a8.46,8.46,0,0,0-5.85,1.84,6.43,6.43,0,0,0-2.05,5h-15l-.11-.32q-.37-7.32,6.38-12.63t17.64-5.31q10.41,0,16.85,5.23t6.43,15v23.87a45,45,0,0,0,.61,7.63,38.47,38.47,0,0,0,1.95,7.1Zm-14.26-10.41a13.28,13.28,0,0,0,7.26-2,10.87,10.87,0,0,0,4.38-4.7V89.6h-8.75c-3.31,0-5.81.81-7.5,2.45a8.08,8.08,0,0,0-2.54,6,6,6,0,0,0,1.9,4.67A7.46,7.46,0,0,0,175.49,104.49Z" style="fill:#121313"/><path d="M238.54,104.06a8.68,8.68,0,0,0,6.46-2.43,8.82,8.82,0,0,0,2.4-6.48h14.2l.11.32a18.07,18.07,0,0,1-6.52,14.65,24.35,24.35,0,0,1-16.65,5.9q-12.81,0-19.81-8.19t-7-21v-1.6q0-12.7,7-21t19.72-8.25q10.57,0,17,6.09t6.25,16l-.11.32H247.4A11.56,11.56,0,0,0,245,71a8,8,0,0,0-6.6-3q-6,0-8.57,4.83t-2.53,12.36v1.6q0,7.69,2.53,12.44T238.54,104.06Z" style="fill:#121313"/><path d="M295.82,116q-12.92,0-20.18-7.93t-7.26-20.42V85.54q0-13,7.05-21.25t19.38-8.22q11.63,0,17.85,7.13t6.22,19.19v8.06H284.45l-.16.32a15.64,15.64,0,0,0,3.6,9.61q3.24,3.68,9.58,3.68a31.76,31.76,0,0,0,8.89-1.07,36.13,36.13,0,0,0,7.56-3.25l4.21,9.61a29,29,0,0,1-9.39,4.75A41.72,41.72,0,0,1,295.82,116Zm-1-47.94a8.67,8.67,0,0,0-7.24,3.23,16.23,16.23,0,0,0-3.07,8.57l.11.27h19V79q0-5.07-2.08-8T294.81,68.08Z" style="fill:#121313"/><path d="M325.55,86.5q0-13.66,5.9-22t16.63-8.38a16.18,16.18,0,0,1,7.8,1.87A18.59,18.59,0,0,1,362,63.28V31.62H377.6V114.9H364.31L363,107.8a19.29,19.29,0,0,1-6.46,6.11A17.06,17.06,0,0,1,348,116q-10.64,0-16.53-7.79t-5.9-20.61Zm15.54,1.12q0,7.57,2.56,11.93T352,103.9a12.09,12.09,0,0,0,5.87-1.36,10.88,10.88,0,0,0,4.11-4V74a12,12,0,0,0-4.08-4.24,10.92,10.92,0,0,0-5.79-1.52,8.8,8.8,0,0,0-8.36,5.07q-2.64,5.07-2.64,13.24Z" style="fill:#121313"/><path d="M387.27,85.48q0-12.92,7.2-21.16t20-8.25q12.81,0,20.07,8.22t7.26,21.19v1.13q0,13-7.23,21.22t-20,8.19q-12.81,0-20-8.19t-7.23-21.22Zm15.53,1.13q0,7.89,2.77,12.67c1.86,3.19,4.84,4.78,9,4.78s7-1.6,8.84-4.8,2.8-7.42,2.8-12.65V85.48q0-7.68-2.83-12.54c-1.88-3.24-4.86-4.86-8.91-4.86s-7,1.63-8.84,4.89-2.8,7.43-2.8,12.51Z" style="fill:#121313"/><path d="M449.08,86.5q0-13.66,5.93-22t16.65-8.38a16.37,16.37,0,0,1,8.54,2.19,19.13,19.13,0,0,1,6.3,6.24l1.23-7.36h13.4v57.49q0,11.27-7.37,17.43t-20.55,6.17a39.23,39.23,0,0,1-9.29-1.2,43.47,43.47,0,0,1-9.07-3.29l2.61-11.63a35.9,35.9,0,0,0,7.4,2.58,36.39,36.39,0,0,0,8.24.89q6.42,0,9.43-2.67t3-8.33v-5.23a17.49,17.49,0,0,1-6,5,17.74,17.74,0,0,1-7.95,1.71q-10.63,0-16.55-7.79t-5.93-20.61Zm15.59,1.12q0,7.57,2.54,11.93t8.3,4.35a12.8,12.8,0,0,0,6.06-1.31,10,10,0,0,0,4-3.81v-25a10.61,10.61,0,0,0-4-4.11,11.69,11.69,0,0,0-6-1.44,8.74,8.74,0,0,0-8.32,5.07q-2.62,5.07-2.62,13.24Z" style="fill:#121313"/><path d="M557.08,102.94h34.8v12H541.49V37.17h15.59Z" style="fill:#121313"/><path d="M635.12,114.9a33,33,0,0,1-1.47-4.17,30.08,30.08,0,0,1-.88-4.48,21.38,21.38,0,0,1-6.35,7A15.9,15.9,0,0,1,617,116q-9.07,0-14-4.67t-4.91-12.73q0-8.49,6.54-13.16t19.08-4.67h8.76V76.2a9,9,0,0,0-2.19-6.46q-2.19-2.3-6.51-2.3A8.46,8.46,0,0,0,618,69.28a6.44,6.44,0,0,0-2.06,5h-15l-.1-.32q-.37-7.32,6.38-12.63t17.64-5.31q10.41,0,16.84,5.23t6.44,15v23.87a45,45,0,0,0,.61,7.63,38.47,38.47,0,0,0,1.95,7.1Zm-14.25-10.41a13.32,13.32,0,0,0,7.26-2,10.93,10.93,0,0,0,4.38-4.7V89.6h-8.76c-3.31,0-5.81.81-7.5,2.45a8.07,8.07,0,0,0-2.53,6,6,6,0,0,0,1.89,4.67A7.49,7.49,0,0,0,620.87,104.49Z" style="fill:#121313"/><path d="M711.89,87.62q0,12.91-5.77,20.66T689.47,116a17.56,17.56,0,0,1-8.84-2.14,18.26,18.26,0,0,1-6.38-6.24L673,114.9H659.79V31.62h15.53V63.28a17.43,17.43,0,0,1,6-5.34,16.7,16.7,0,0,1,8-1.87q11,0,16.76,8.3t5.77,22.13ZM696.35,86.5q0-8.43-2.48-13.37c-1.65-3.3-4.48-4.94-8.46-4.94a11.67,11.67,0,0,0-6.14,1.52,10.51,10.51,0,0,0-3.95,4.35V98.51a9.89,9.89,0,0,0,4,4,12.74,12.74,0,0,0,6.22,1.39q6,0,8.43-4.24t2.4-12Z" style="fill:#121313"/><path d="M752.73,98.88a5.38,5.38,0,0,0-2.49-4.4q-2.47-1.85-9.2-3.23-10.15-2-15.41-6.14A13.42,13.42,0,0,1,720.38,74q0-7.41,6.3-12.65t16.76-5.23q10.93,0,17.53,5.23t6.33,13l-.11.32H752.14A7.57,7.57,0,0,0,749.9,69a10.49,10.49,0,0,0-12.39-.32,5.79,5.79,0,0,0-2.19,4.59,5.19,5.19,0,0,0,2.27,4.35q2.26,1.68,9.21,3,10.62,2.13,15.83,6.27a13.76,13.76,0,0,1,5.2,11.4q0,7.78-6.67,12.76t-17.62,5q-11.52,0-18.23-5.85t-6.37-13.32l.1-.32h14.25q.16,4.65,3.05,6.73a12.53,12.53,0,0,0,7.52,2.08c2.89,0,5.08-.57,6.6-1.73A5.64,5.64,0,0,0,752.73,98.88Z" style="fill:#121313"/></g></svg>